<svg width="171" height="56" viewBox="0 0 171 56" fill="none" xmlns="http://www.w3.org/2000/svg">
<path d="M10.5416 6.74454V23H5.76054V6.74454H10.5416ZM16.0689 6.65125V7.81735H0.23322V6.65125H16.0689ZM16.0689 7.74739V11.0358L15.8357 11.0125V10.8492C15.8357 9.91634 15.5713 9.18558 15.0427 8.65695C14.5141 8.11277 13.7755 7.8329 12.8271 7.81735V7.74739H16.0689ZM16.0689 6.23146V6.90779L13.2236 6.65125C13.5657 6.65125 13.9233 6.62793 14.2964 6.58129C14.6851 6.53464 15.0427 6.48022 15.3692 6.41803C15.6957 6.35584 15.9289 6.29365 16.0689 6.23146ZM5.83051 21.2975V23H3.96475V22.7668C3.96475 22.7668 4.01139 22.7668 4.10468 22.7668C4.21351 22.7668 4.26793 22.7668 4.26793 22.7668C4.67218 22.7668 5.01424 22.6268 5.2941 22.347C5.58951 22.0516 5.74499 21.7017 5.76054 21.2975H5.83051ZM10.4716 21.2975H10.5416C10.5571 21.7017 10.7048 22.0516 10.9847 22.347C11.2801 22.6268 11.6299 22.7668 12.0342 22.7668C12.0342 22.7668 12.0808 22.7668 12.1741 22.7668C12.2829 22.7668 12.3374 22.7668 12.3374 22.7668V23H10.4716V21.2975ZM3.47498 7.74739V7.81735C2.52655 7.8329 1.78802 8.11277 1.25939 8.65695C0.730757 9.18558 0.466441 9.91634 0.466441 10.8492V11.0125L0.23322 11.0358V7.74739H3.47498ZM0.23322 6.23146C0.388701 6.29365 0.621921 6.35584 0.932881 6.41803C1.25939 6.48022 1.61699 6.53464 2.0057 6.58129C2.3944 6.62793 2.752 6.65125 3.07851 6.65125L0.23322 6.90779V6.23146ZM22.1246 6.11485L30.194 22.8601H24.5967L20.0956 12.0853L22.1246 6.11485ZM17.1104 21.2975C16.9704 21.6085 16.9393 21.8728 17.0171 22.0904C17.0948 22.3081 17.227 22.4791 17.4135 22.6035C17.6157 22.7124 17.81 22.7668 17.9966 22.7668H18.2065V23H13.0057V22.7668C13.0057 22.7668 13.0445 22.7668 13.1223 22.7668C13.1845 22.7668 13.2156 22.7668 13.2156 22.7668C13.5732 22.7668 13.9386 22.6579 14.3117 22.4403C14.7004 22.2071 15.0191 21.8261 15.2679 21.2975H17.1104ZM22.1246 6.11485V9.75308L16.3874 22.93H14.4983L20.5853 9.58983C20.6631 9.4499 20.7641 9.23222 20.8885 8.93681C21.0285 8.62585 21.1684 8.29157 21.3083 7.93396C21.4638 7.57636 21.596 7.2343 21.7048 6.90779C21.8292 6.58129 21.8991 6.31697 21.9147 6.11485H22.1246ZM24.037 17.9624V19.1285H17.4369V17.9624H24.037ZM23.9204 21.2975H29.4244C29.6887 21.8261 30.0074 22.2071 30.3806 22.4403C30.7537 22.6579 31.1191 22.7668 31.4767 22.7668C31.4767 22.7668 31.5078 22.7668 31.57 22.7668C31.6322 22.7668 31.6633 22.7668 31.6633 22.7668V23H22.8243V22.7668H23.0342C23.3451 22.7668 23.6172 22.6424 23.8504 22.3936C24.0992 22.1293 24.1225 21.7639 23.9204 21.2975ZM37.5807 6.34807C37.9228 6.34807 38.3815 6.36361 38.9567 6.39471C39.532 6.42581 40.1306 6.47245 40.7525 6.53464C41.3744 6.58129 41.9186 6.6357 42.3851 6.6979C42.8515 6.74454 43.1547 6.79896 43.2946 6.86115L42.8282 10.3828H42.595C42.595 9.52764 42.2607 8.83575 41.5921 8.30712C40.9391 7.77848 40.0373 7.51417 38.8868 7.51417C37.9383 7.51417 37.1843 7.70074 36.6245 8.0739C36.0648 8.4315 35.7616 8.89794 35.715 9.47322C35.6683 10.0329 35.8549 10.4683 36.2747 10.7793C36.71 11.0902 37.2153 11.3779 37.7906 11.6422L42.1518 13.6712C43.0225 14.0599 43.7066 14.6274 44.2042 15.3737C44.7017 16.12 44.9116 17.0607 44.8339 18.1957C44.725 19.8593 44.0254 21.1342 42.7349 22.0205C41.46 22.8912 39.7186 23.3265 37.5108 23.3265C36.609 23.3265 35.7927 23.2565 35.0619 23.1166C34.3312 22.9767 33.7015 22.7979 33.1729 22.5802C32.6598 22.347 32.2633 22.0904 31.9834 21.8106C31.8124 21.4219 31.7424 20.9477 31.7735 20.3879C31.8046 19.8282 31.9057 19.2762 32.0767 18.7321C32.2633 18.1723 32.481 17.7292 32.7297 17.4027H32.9396C32.893 18.2112 33.064 18.9808 33.4527 19.7116C33.8414 20.4424 34.4245 21.0332 35.2019 21.4841C35.9793 21.935 36.9122 22.1604 38.0005 22.1604C39.12 22.1604 39.944 21.9272 40.4727 21.4607C41.0168 20.9943 41.2889 20.4657 41.2889 19.8748C41.2889 19.3773 41.0946 18.9264 40.7059 18.5222C40.3327 18.1179 39.703 17.7137 38.8168 17.3094L35.0153 15.5369C33.9425 15.0394 33.1573 14.3553 32.6598 13.4846C32.1778 12.6139 32.0068 11.6266 32.1467 10.5227C32.2555 9.62092 32.5432 8.85907 33.0096 8.23715C33.476 7.61523 34.0902 7.14879 34.852 6.83783C35.6295 6.51132 36.539 6.34807 37.5807 6.34807ZM43.3413 6.58129L43.2713 7.07105H39.8896V6.58129H43.3413ZM56.2974 6.74454V23H51.5164V6.74454H56.2974ZM61.8247 6.65125V7.81735H45.989V6.65125H61.8247ZM61.8247 7.74739V11.0358L61.5915 11.0125V10.8492C61.5915 9.91634 61.3272 9.18558 60.7985 8.65695C60.2699 8.11277 59.5314 7.8329 58.5829 7.81735V7.74739H61.8247ZM61.8247 6.23146V6.90779L58.9794 6.65125C59.3215 6.65125 59.6791 6.62793 60.0522 6.58129C60.4409 6.53464 60.7985 6.48022 61.1251 6.41803C61.4516 6.35584 61.6848 6.29365 61.8247 6.23146ZM51.5863 21.2975V23H49.7206V22.7668C49.7206 22.7668 49.7672 22.7668 49.8605 22.7668C49.9693 22.7668 50.0238 22.7668 50.0238 22.7668C50.428 22.7668 50.7701 22.6268 51.0499 22.347C51.3453 22.0516 51.5008 21.7017 51.5164 21.2975H51.5863ZM56.2274 21.2975H56.2974C56.3129 21.7017 56.4606 22.0516 56.7405 22.347C57.0359 22.6268 57.3858 22.7668 57.79 22.7668C57.79 22.7668 57.8366 22.7668 57.9299 22.7668C58.0388 22.7668 58.0932 22.7668 58.0932 22.7668V23H56.2274V21.2975ZM49.2308 7.74739V7.81735C48.2824 7.8329 47.5439 8.11277 47.0152 8.65695C46.4866 9.18558 46.2223 9.91634 46.2223 10.8492V11.0125L45.989 11.0358V7.74739H49.2308ZM45.989 6.23146C46.1445 6.29365 46.3777 6.35584 46.6887 6.41803C47.0152 6.48022 47.3728 6.53464 47.7615 6.58129C48.1502 6.62793 48.5078 6.65125 48.8343 6.65125L45.989 6.90779V6.23146ZM69.1256 6.6979L74.0232 15.4903H69.2422L63.8548 6.6979H69.1256ZM74.0232 15.4903V23H69.2422V15.4903H74.0232ZM77.5215 6.6979H79.5972L73.72 15.9334L72.3207 15.7235L77.5215 6.6979ZM76.5653 8.35376C76.6897 8.13609 76.7208 7.91842 76.6586 7.70074C76.5964 7.46752 76.4798 7.28095 76.3088 7.14102C76.1533 6.98554 75.9667 6.90779 75.7491 6.90779C75.7491 6.90779 75.7024 6.90779 75.6091 6.90779C75.5158 6.90779 75.4692 6.90779 75.4692 6.90779V6.67457H81.2764V6.90779H80.9499C80.4679 6.90779 80.0092 7.04773 79.5739 7.32759C79.1541 7.60746 78.8276 7.92619 78.5943 8.2838L76.5653 8.35376ZM70.0585 8.35376L64.811 8.2838C64.5933 7.92619 64.2746 7.60746 63.8548 7.32759C63.435 7.04773 62.9764 6.90779 62.4788 6.90779H62.1523V6.67457H71.1546V6.90779C71.1546 6.90779 71.108 6.90779 71.0147 6.90779C70.9214 6.90779 70.8748 6.90779 70.8748 6.90779C70.5327 6.90779 70.2684 7.07105 70.0818 7.39756C69.8952 7.70852 69.8875 8.02725 70.0585 8.35376ZM69.3122 21.2975V23H67.4464V22.7668C67.4464 22.7668 67.4931 22.7668 67.5863 22.7668C67.6796 22.7668 67.7341 22.7668 67.7496 22.7668C68.1538 22.7668 68.4959 22.6268 68.7758 22.347C69.0712 22.0516 69.2267 21.7017 69.2422 21.2975H69.3122ZM73.9533 21.2975H74.0232C74.0232 21.7017 74.1709 22.0516 74.4663 22.347C74.7618 22.6268 75.1116 22.7668 75.5158 22.7668C75.5158 22.7668 75.5625 22.7668 75.6558 22.7668C75.7491 22.7668 75.7957 22.7668 75.7957 22.7668V23H73.9533V21.2975ZM93.2993 6.67457V23H88.5182V6.67457H93.2993ZM98.5934 14.3708V15.5369H93.2293V14.3708H98.5934ZM99.8294 6.67457V7.864H93.2293V6.67457H99.8294ZM98.5934 15.4903V18.1957H98.3601V18.0791C98.3601 17.3483 98.1191 16.7497 97.6372 16.2833C97.1707 15.8013 96.5721 15.5525 95.8414 15.5369V15.4903H98.5934ZM98.5934 11.7121V14.4175H95.8414V14.3708C96.5721 14.3553 97.1785 14.1065 97.6605 13.6245C98.1425 13.1426 98.3757 12.5362 98.3601 11.8054V11.7121H98.5934ZM99.8294 7.79403V11.0591H99.5962V10.8725C99.5962 9.93966 99.3319 9.2089 98.8033 8.68027C98.2746 8.13609 97.5361 7.85622 96.5877 7.84068V7.79403H99.8294ZM99.8294 6.25478V6.93112L96.9841 6.67457C97.3262 6.67457 97.6838 6.65125 98.057 6.60461C98.4457 6.55796 98.8033 6.50355 99.1298 6.44135C99.4563 6.37916 99.6895 6.31697 99.8294 6.25478ZM88.5882 21.2975V23H86.7224V22.7668C86.7224 22.7668 86.7691 22.7668 86.8624 22.7668C86.9712 22.7668 87.0256 22.7668 87.0256 22.7668C87.4299 22.7668 87.7719 22.6268 88.0518 22.347C88.3472 22.0516 88.5027 21.7017 88.5182 21.2975H88.5882ZM88.5882 8.37708H88.5182C88.5027 7.97283 88.3472 7.63078 88.0518 7.35091C87.7719 7.0555 87.4299 6.90779 87.0256 6.90779C87.0256 6.90779 86.9712 6.90779 86.8624 6.90779C86.7691 6.90779 86.7224 6.90779 86.7224 6.90779V6.67457H88.5882V8.37708ZM93.2293 21.2975H93.2993C93.3148 21.7017 93.4625 22.0516 93.7424 22.347C94.0378 22.6268 94.3876 22.7668 94.7919 22.7668C94.7919 22.7668 94.8385 22.7668 94.9318 22.7668C95.0251 22.7668 95.0795 22.7668 95.0951 22.7668V23H93.2293V21.2975ZM109.808 8.72691C111.145 8.72691 112.335 8.89017 113.376 9.21668C114.434 9.54318 115.328 10.0174 116.058 10.6393C116.805 11.2612 117.364 12.0231 117.737 12.9249C118.126 13.8267 118.321 14.8606 118.321 16.0267C118.321 17.1773 118.126 18.2034 117.737 19.1052C117.364 19.9915 116.805 20.7455 116.058 21.3675C115.328 21.9894 114.434 22.4636 113.376 22.7901C112.335 23.1166 111.145 23.2799 109.808 23.2799C108.486 23.2799 107.297 23.1166 106.24 22.7901C105.198 22.4636 104.304 21.9894 103.558 21.3675C102.827 20.7455 102.267 19.9915 101.878 19.1052C101.505 18.2034 101.319 17.1773 101.319 16.0267C101.319 14.8606 101.505 13.8267 101.878 12.9249C102.267 12.0231 102.827 11.2612 103.558 10.6393C104.304 10.0174 105.198 9.54318 106.24 9.21668C107.297 8.89017 108.486 8.72691 109.808 8.72691ZM109.808 22.2304C110.632 22.2304 111.316 21.9894 111.86 21.5074C112.42 21.0099 112.84 20.3024 113.12 19.3851C113.4 18.4522 113.54 17.3327 113.54 16.0267C113.54 14.7051 113.4 13.5779 113.12 12.645C112.84 11.7121 112.42 11.0047 111.86 10.5227C111.316 10.0252 110.632 9.77641 109.808 9.77641C108.999 9.77641 108.315 10.0252 107.756 10.5227C107.211 11.0047 106.792 11.7121 106.496 12.645C106.216 13.5779 106.076 14.7051 106.076 16.0267C106.076 17.3327 106.216 18.4522 106.496 19.3851C106.792 20.3024 107.211 21.0099 107.756 21.5074C108.315 21.9894 108.999 22.2304 109.808 22.2304ZM128.438 8.72691C129.775 8.72691 130.965 8.89017 132.007 9.21668C133.064 9.54318 133.958 10.0174 134.689 10.6393C135.435 11.2612 135.995 12.0231 136.368 12.9249C136.756 13.8267 136.951 14.8606 136.951 16.0267C136.951 17.1773 136.756 18.2034 136.368 19.1052C135.995 19.9915 135.435 20.7455 134.689 21.3675C133.958 21.9894 133.064 22.4636 132.007 22.7901C130.965 23.1166 129.775 23.2799 128.438 23.2799C127.117 23.2799 125.927 23.1166 124.87 22.7901C123.828 22.4636 122.934 21.9894 122.188 21.3675C121.457 20.7455 120.897 19.9915 120.509 19.1052C120.136 18.2034 119.949 17.1773 119.949 16.0267C119.949 14.8606 120.136 13.8267 120.509 12.9249C120.897 12.0231 121.457 11.2612 122.188 10.6393C122.934 10.0174 123.828 9.54318 124.87 9.21668C125.927 8.89017 127.117 8.72691 128.438 8.72691ZM128.438 22.2304C129.262 22.2304 129.946 21.9894 130.491 21.5074C131.05 21.0099 131.47 20.3024 131.75 19.3851C132.03 18.4522 132.17 17.3327 132.17 16.0267C132.17 14.7051 132.03 13.5779 131.75 12.645C131.47 11.7121 131.05 11.0047 130.491 10.5227C129.946 10.0252 129.262 9.77641 128.438 9.77641C127.63 9.77641 126.946 10.0252 126.386 10.5227C125.842 11.0047 125.422 11.7121 125.127 12.645C124.847 13.5779 124.707 14.7051 124.707 16.0267C124.707 17.3327 124.847 18.4522 125.127 19.3851C125.422 20.3024 125.842 21.0099 126.386 21.5074C126.946 21.9894 127.63 22.2304 128.438 22.2304ZM145.686 9.00678C147.443 9.00678 148.943 9.28664 150.187 9.84637C151.431 10.3906 152.379 11.1835 153.032 12.2252C153.701 13.2669 154.035 14.5263 154.035 16.0034C154.035 17.4805 153.701 18.7398 153.032 19.7816C152.379 20.8233 151.431 21.624 150.187 22.1837C148.943 22.7279 147.443 23 145.686 23H140.368L140.322 21.9272C141.581 21.9272 142.56 21.9272 143.26 21.9272C143.975 21.9272 144.481 21.9272 144.776 21.9272C145.071 21.9272 145.219 21.9272 145.219 21.9272C146.463 21.9272 147.443 21.4063 148.158 20.3646C148.889 19.3229 149.254 17.8692 149.254 16.0034C149.254 14.1376 148.896 12.6839 148.181 11.6422C147.466 10.5849 146.479 10.0563 145.219 10.0563C145.219 10.0563 145.064 10.0563 144.753 10.0563C144.457 10.0563 143.936 10.0563 143.19 10.0563C142.444 10.0563 141.418 10.0563 140.112 10.0563V9.00678H145.686ZM143.913 9.00678V23H139.342V9.00678H143.913ZM139.412 21.5074V23H137.756V22.7668C137.756 22.7668 137.795 22.7668 137.873 22.7668C137.966 22.7668 138.02 22.7668 138.036 22.7668C138.394 22.7668 138.697 22.6424 138.946 22.3936C139.21 22.1449 139.342 21.8494 139.342 21.5074H139.412ZM139.389 10.4527H139.342C139.327 10.0951 139.187 9.8075 138.922 9.58983C138.673 9.35661 138.37 9.24 138.013 9.24C138.013 9.24 137.966 9.24 137.873 9.24C137.795 9.24 137.748 9.24 137.733 9.24V9.00678H139.389V10.4527ZM160.334 8.72691C160.567 8.72691 160.94 8.74246 161.454 8.77356C161.967 8.78911 162.503 8.8202 163.063 8.86685C163.638 8.91349 164.143 8.96791 164.579 9.0301C165.014 9.07674 165.278 9.12339 165.372 9.17003L164.859 12.3418H164.719C164.719 11.5955 164.447 10.9892 163.902 10.5227C163.358 10.0563 162.62 9.82305 161.687 9.82305C160.956 9.82305 160.388 9.96298 159.984 10.2428C159.58 10.5072 159.347 10.8803 159.285 11.3623C159.253 11.7044 159.323 11.992 159.494 12.2252C159.681 12.4429 159.93 12.6295 160.241 12.7849C160.552 12.9404 160.87 13.0881 161.197 13.2281L164.206 14.6041C164.983 14.9461 165.613 15.4592 166.095 16.1433C166.577 16.8119 166.771 17.6826 166.678 18.7554C166.6 19.7505 166.305 20.5901 165.791 21.2742C165.278 21.9427 164.563 22.448 163.646 22.7901C162.728 23.1166 161.625 23.2799 160.334 23.2799C159.526 23.2799 158.818 23.2177 158.212 23.0933C157.605 22.9689 157.108 22.8056 156.719 22.6035C156.33 22.4014 156.043 22.1837 155.856 21.9505C155.685 21.5929 155.615 21.1576 155.646 20.6445C155.677 20.1314 155.778 19.6339 155.95 19.1519C156.121 18.6543 156.323 18.2579 156.556 17.9624H156.696C156.665 18.6621 156.805 19.3384 157.116 19.9915C157.442 20.6289 157.924 21.1576 158.562 21.5774C159.215 21.9816 160 22.1915 160.917 22.2071C161.788 22.2226 162.41 22.036 162.783 21.6473C163.172 21.2586 163.366 20.8388 163.366 20.3879C163.366 19.9526 163.179 19.5561 162.806 19.1985C162.449 18.8409 161.858 18.4833 161.034 18.1257L158.585 16.9829C157.59 16.5631 156.851 15.949 156.369 15.1405C155.903 14.3164 155.747 13.3835 155.903 12.3418C156.027 11.5333 156.276 10.8648 156.649 10.3361C157.038 9.79195 157.543 9.38771 158.165 9.12339C158.787 8.85907 159.51 8.72691 160.334 8.72691ZM165.418 8.93681L165.348 9.33329H162.316V8.93681H165.418Z" fill="#151515"/>
<path d="M4.53031 36.0949H6.78671C7.31146 36.0949 7.82454 36.1532 8.32597 36.2698C8.82739 36.3864 9.27051 36.573 9.65532 36.8295C10.0518 37.0861 10.3666 37.4243 10.5999 37.8441C10.8331 38.2639 10.9497 38.7828 10.9497 39.4008C10.9497 39.8906 10.8447 40.3803 10.6348 40.8701C10.4366 41.3482 10.1276 41.7622 9.7078 42.112C9.288 42.4502 8.74576 42.6542 8.08109 42.7242C8.45424 42.8408 8.79241 43.0507 9.09559 43.3539C9.41044 43.6571 9.66698 43.9603 9.86522 44.2634C9.87688 44.2868 9.94102 44.3917 10.0576 44.5783C10.1859 44.7649 10.3375 44.9981 10.5124 45.278C10.699 45.5462 10.8914 45.8202 11.0896 46.1001C11.2879 46.3799 11.4686 46.6248 11.6319 46.8347C11.8884 47.1496 12.1216 47.4061 12.3315 47.6043C12.5414 47.7909 12.763 47.9308 12.9962 48.0241C13.2294 48.1058 13.4976 48.1524 13.8008 48.1641V48.339H12.0866C11.4569 48.339 10.8856 48.2865 10.3725 48.1816C9.85939 48.0649 9.40461 47.8725 9.00814 47.6043C8.61166 47.3361 8.26766 46.9746 7.97614 46.5199C7.88285 46.3799 7.7779 46.205 7.66129 45.9951C7.55634 45.7736 7.44556 45.5403 7.32895 45.2954C7.21234 45.0506 7.09573 44.8173 6.97912 44.5958C6.87417 44.3626 6.78088 44.1527 6.69925 43.9661C6.61763 43.7795 6.55932 43.6338 6.52434 43.5288C6.37275 43.1557 6.192 42.8758 5.9821 42.6892C5.78386 42.5026 5.56814 42.3919 5.33492 42.3569V42.182C5.3699 42.182 5.43986 42.182 5.54481 42.182C5.64976 42.182 5.76054 42.182 5.87715 42.182C6.192 42.182 6.49519 42.1178 6.78671 41.9896C7.0899 41.8613 7.3581 41.6514 7.59132 41.3599C7.82454 41.0683 7.9878 40.666 8.08109 40.1529C8.10441 40.048 8.1219 39.9255 8.13356 39.7856C8.15688 39.6457 8.16271 39.4883 8.15105 39.3133C8.11607 38.4738 7.90617 37.8615 7.52136 37.4767C7.13654 37.0803 6.65844 36.8762 6.08705 36.8645C5.9238 36.8529 5.74305 36.8529 5.54481 36.8645C5.35824 36.8645 5.18332 36.8645 5.02007 36.8645C4.86847 36.8645 4.76353 36.8645 4.70522 36.8645C4.70522 36.8529 4.68773 36.7887 4.65275 36.6721C4.62942 36.5439 4.60027 36.4156 4.56529 36.2873C4.54197 36.159 4.53031 36.0949 4.53031 36.0949ZM4.7577 36.0949V48.339H2.13397V36.0949H4.7577ZM2.18644 47.0621V48.339H0.787119V48.1641C0.79878 48.1641 0.833763 48.1641 0.892068 48.1641C0.962034 48.1641 1.00285 48.1641 1.01451 48.1641C1.3177 48.1641 1.57424 48.0591 1.78414 47.8492C2.0057 47.6277 2.12231 47.3653 2.13397 47.0621H2.18644ZM2.18644 37.3718H2.13397C2.12231 37.0686 2.0057 36.8121 1.78414 36.6022C1.57424 36.3806 1.3177 36.2698 1.01451 36.2698C1.00285 36.2698 0.962034 36.2698 0.892068 36.2698C0.833763 36.2698 0.79878 36.2698 0.787119 36.2698V36.0949H2.18644V37.3718ZM4.70522 47.0621H4.7577C4.7577 47.3653 4.86847 47.6277 5.09003 47.8492C5.31159 48.0591 5.57397 48.1641 5.87715 48.1641C5.90048 48.1641 5.94129 48.1641 5.99959 48.1641C6.0579 48.1641 6.08705 48.1641 6.08705 48.1641V48.339H4.70522V47.0621ZM23.7946 37.8441V48.339H21.2758V37.8441H23.7946ZM27.8876 47.6393L28.2899 48.339H23.7596V47.6393H27.8876ZM27.2929 42.7942V43.4938H23.7596V42.7942H27.2929ZM28.08 37.8441V38.5437H23.7596V37.8441H28.08ZM29.0071 45.1205L28.3424 48.339H25.3164L25.8586 47.6393C26.36 47.6393 26.8032 47.5402 27.188 47.342C27.5845 47.1321 27.9226 46.8405 28.2025 46.4674C28.4824 46.0826 28.6981 45.6336 28.8497 45.1205H29.0071ZM27.2929 43.4588V44.9981H27.118V44.8582C27.118 44.4733 26.9956 44.1527 26.7507 43.8961C26.5175 43.6396 26.1968 43.5055 25.7887 43.4938V43.4588H27.2929ZM27.2929 41.2899V42.8291H25.7887V42.7942C26.1968 42.7825 26.5175 42.6484 26.7507 42.3919C26.9956 42.1237 27.118 41.7971 27.118 41.4123V41.2899H27.2929ZM28.08 38.5087V40.3628H27.9051V40.2054C27.9051 39.6923 27.7652 39.29 27.4853 38.9985C27.2171 38.707 26.8265 38.5554 26.3134 38.5437V38.5087H28.08ZM28.08 37.5817V38.0015L26.2434 37.8441C26.5816 37.8441 26.9373 37.8149 27.3104 37.7566C27.6836 37.6866 27.9401 37.6283 28.08 37.5817ZM21.3108 47.237L21.3983 48.339H20.1039V48.1641C20.1039 48.1641 20.1389 48.1641 20.2089 48.1641C20.2788 48.1641 20.3196 48.1641 20.3313 48.1641C20.5878 48.1641 20.8036 48.0766 20.9785 47.9017C21.1651 47.7151 21.2642 47.4936 21.2758 47.237H21.3108ZM21.3108 38.946H21.2758C21.2642 38.6778 21.1651 38.4563 20.9785 38.2813C20.8036 38.1064 20.5878 38.019 20.3313 38.019C20.3196 38.019 20.2788 38.019 20.2089 38.019C20.1389 38.019 20.1039 38.019 20.1039 38.019V37.8441H21.3983L21.3108 38.946ZM40.1921 37.6167C40.4253 37.6167 40.7052 37.6283 41.0317 37.6517C41.3699 37.675 41.7022 37.7041 42.0287 37.7391C42.3552 37.7624 42.6409 37.7974 42.8858 37.8441C43.1423 37.879 43.3173 37.914 43.4105 37.949L43.1832 40.083H43.0257C43.0257 39.5466 42.8392 39.1209 42.466 38.8061C42.0929 38.4912 41.5564 38.3338 40.8568 38.3338C40.2971 38.3338 39.8423 38.4563 39.4924 38.7011C39.1543 38.946 38.9735 39.2725 38.9502 39.6807C38.9269 39.8906 38.9619 40.083 39.0552 40.2579C39.1601 40.4211 39.3 40.5669 39.475 40.6952C39.6615 40.8234 39.8656 40.9517 40.0872 41.08L42.8333 42.7767C43.2998 43.0099 43.6671 43.3481 43.9353 43.7912C44.2035 44.2343 44.3201 44.7707 44.2851 45.4004C44.2501 46.0534 44.0577 46.619 43.7079 47.0971C43.3697 47.5752 42.8975 47.9425 42.2911 48.199C41.6964 48.4439 40.9909 48.5664 40.1746 48.5664C39.6732 48.5664 39.2068 48.5256 38.7753 48.4439C38.3438 48.3623 37.9707 48.2515 37.6558 48.1116C37.3527 47.9717 37.1194 47.8142 36.9562 47.6393C36.8629 47.4061 36.8221 47.1262 36.8337 46.7997C36.8454 46.4616 36.8979 46.1292 36.9912 45.8027C37.0844 45.4645 37.2011 45.1847 37.341 44.9631H37.4809C37.4459 45.4879 37.5392 45.9718 37.7608 46.4149C37.994 46.858 38.3322 47.2137 38.7753 47.4819C39.2184 47.7384 39.749 47.8667 40.367 47.8667C41.0434 47.8667 41.5506 47.7093 41.8888 47.3944C42.227 47.0796 42.396 46.7123 42.396 46.2925C42.396 45.9776 42.2911 45.6978 42.0812 45.4529C41.883 45.1963 41.5506 44.9456 41.0842 44.7007L38.6004 43.1265C38.0173 42.8233 37.5917 42.421 37.3235 41.9196C37.067 41.4182 36.9737 40.8701 37.0436 40.2754C37.1019 39.7157 37.2652 39.2375 37.5334 38.8411C37.8133 38.4446 38.1806 38.1414 38.6354 37.9315C39.0901 37.7216 39.6091 37.6167 40.1921 37.6167ZM43.4105 37.7741L43.3931 38.0889H41.5215V37.7741H43.4105ZM57.9798 37.8965V48.339H55.4435V37.8965H57.9798ZM61.7929 37.8266V38.5262H51.6478V37.8266H61.7929ZM61.7929 38.4738V40.3279H61.6005V40.1704C61.6122 39.669 61.4722 39.2725 61.1807 38.981C60.9008 38.6895 60.5102 38.5379 60.0088 38.5262V38.4738H61.7929ZM61.7929 37.5642V38.0015L59.9388 37.8266C60.1604 37.8266 60.3994 37.8149 60.656 37.7916C60.9125 37.7566 61.1457 37.7216 61.3556 37.6866C61.5655 37.64 61.7113 37.5992 61.7929 37.5642ZM55.4785 47.237V48.339H54.3065V48.1641C54.3065 48.1641 54.3357 48.1641 54.394 48.1641C54.464 48.1641 54.4989 48.1641 54.4989 48.1641C54.7555 48.1641 54.9712 48.0766 55.1461 47.9017C55.3327 47.7151 55.4318 47.4936 55.4435 47.237H55.4785ZM57.9273 47.237H57.9798C57.9798 47.4936 58.073 47.7151 58.2596 47.9017C58.4462 48.0766 58.6736 48.1641 58.9418 48.1641C58.9418 48.1641 58.9709 48.1641 59.0293 48.1641C59.0992 48.1641 59.1342 48.1641 59.1342 48.1641V48.339H57.9273V47.237ZM53.432 38.4738V38.5262C52.9189 38.5379 52.5224 38.6895 52.2425 38.981C51.9743 39.2725 51.8402 39.669 51.8402 40.1704V40.3279H51.6478V38.4738H53.432ZM51.6478 37.5642C51.7528 37.5875 51.9044 37.6225 52.1026 37.6691C52.3125 37.7158 52.5399 37.7566 52.7848 37.7916C53.0413 37.8149 53.2745 37.8266 53.4844 37.8266L51.6478 38.0015V37.5642ZM73.0944 37.3718L78.2718 48.2515H75.3158L72.0624 40.5727L73.0944 37.3718ZM69.8059 47.1845C69.6777 47.4994 69.6952 47.7443 69.8584 47.9192C70.0217 48.0824 70.2024 48.1641 70.4007 48.1641H70.5406V48.339H67.0423V48.1641C67.0423 48.1641 67.0656 48.1641 67.1123 48.1641C67.1589 48.1641 67.1822 48.1641 67.1822 48.1641C67.4154 48.1641 67.6603 48.0941 67.9169 47.9542C68.1734 47.8026 68.3833 47.546 68.5466 47.1845H69.8059ZM73.0944 37.3718L73.1293 39.4708L69.3337 48.2865H68.0393L72.1323 39.4883C72.1556 39.4183 72.2081 39.2959 72.2897 39.1209C72.3714 38.9344 72.4588 38.7303 72.5521 38.5087C72.6454 38.2755 72.7329 38.0598 72.8145 37.8615C72.8961 37.6517 72.9428 37.4884 72.9544 37.3718H73.0944ZM74.6161 44.9106V45.5928H70.1558V44.9106H74.6161ZM74.8785 47.1845H77.7646C77.9395 47.546 78.1552 47.8026 78.4118 47.9542C78.6683 48.0941 78.9132 48.1641 79.1464 48.1641C79.1464 48.1641 79.1697 48.1641 79.2164 48.1641C79.263 48.1641 79.2864 48.1641 79.2864 48.1641V48.339H74.1438V48.1641H74.2838C74.482 48.1641 74.6628 48.0824 74.826 47.9192C74.9893 47.7443 75.0068 47.4994 74.8785 47.1845ZM88.8608 37.8441V44.4384C88.8608 45.5112 89.1057 46.3508 89.5954 46.9571C90.0968 47.5635 90.7907 47.8667 91.6769 47.8667C92.5981 47.8667 93.3095 47.581 93.8109 47.0096C94.324 46.4382 94.5863 45.6453 94.598 44.6308V37.8441H95.7524V44.5258C95.7524 45.7736 95.3676 46.7589 94.598 47.4819C93.84 48.2049 92.7614 48.5664 91.3621 48.5664C89.6712 48.5664 88.4118 48.2107 87.5839 47.4994C86.756 46.7764 86.342 45.791 86.342 44.5433V37.8441H88.8608ZM86.377 37.8441V38.7536H86.342C86.3303 38.5321 86.2487 38.3513 86.0971 38.2114C85.9455 38.0714 85.7589 38.0015 85.5374 38.0015C85.5374 38.0015 85.4966 38.0015 85.4149 38.0015C85.3333 38.0015 85.2925 38.0015 85.2925 38.0015V37.8441H86.377ZM89.8928 37.8441V38.0015C89.8928 38.0015 89.852 38.0015 89.7703 38.0015C89.6887 38.0015 89.6479 38.0015 89.6479 38.0015C89.4263 38.0015 89.2398 38.0714 89.0882 38.2114C88.9366 38.3513 88.8608 38.5321 88.8608 38.7536H88.8258V37.8441H89.8928ZM94.633 37.8441V38.7536H94.598C94.5863 38.5321 94.5047 38.3513 94.3531 38.2114C94.2015 38.0714 94.0208 38.0015 93.8109 38.0015C93.8109 38.0015 93.7701 38.0015 93.6884 38.0015C93.6068 38.0015 93.566 38.0015 93.566 38.0015V37.8441H94.633ZM96.7844 37.8441V38.0015C96.7844 38.0015 96.7436 38.0015 96.662 38.0015C96.592 38.0015 96.557 38.0015 96.557 38.0015C96.3355 38.0015 96.1431 38.0714 95.9798 38.2114C95.8282 38.3513 95.7524 38.5321 95.7524 38.7536H95.7175V37.8441H96.7844ZM108.015 37.8441H109.904C110.383 37.8441 110.849 37.8965 111.304 38.0015C111.759 38.0948 112.167 38.2522 112.528 38.4738C112.89 38.6837 113.175 38.9752 113.385 39.3483C113.607 39.7098 113.718 40.1646 113.718 40.7127C113.718 41.1208 113.63 41.5289 113.455 41.9371C113.292 42.3335 113.03 42.6775 112.668 42.9691C112.318 43.2606 111.858 43.453 111.286 43.5463C111.624 43.6512 111.945 43.8553 112.248 44.1585C112.563 44.4617 112.808 44.7474 112.983 45.0156C113.03 45.1089 113.111 45.2605 113.228 45.4704C113.344 45.6686 113.49 45.9018 113.665 46.17C113.852 46.4266 114.044 46.6948 114.242 46.9746C114.476 47.2895 114.68 47.5344 114.855 47.7093C115.029 47.8725 115.21 47.9891 115.397 48.0591C115.583 48.1291 115.799 48.1641 116.044 48.1641V48.339H114.575C113.945 48.339 113.409 48.2923 112.965 48.199C112.534 48.1058 112.155 47.9367 111.829 47.6918C111.514 47.4352 111.222 47.0912 110.954 46.6598C110.849 46.5082 110.738 46.3274 110.622 46.1176C110.505 45.896 110.388 45.6744 110.272 45.4529C110.155 45.2313 110.05 45.0156 109.957 44.8057C109.875 44.5958 109.817 44.4209 109.782 44.2809C109.63 43.9078 109.455 43.6396 109.257 43.4763C109.071 43.3014 108.896 43.214 108.733 43.214V43.0565C108.733 43.0565 108.773 43.0565 108.855 43.0565C108.937 43.0565 109.042 43.0565 109.17 43.0565C109.415 43.0565 109.654 43.0157 109.887 42.9341C110.132 42.8408 110.353 42.6717 110.552 42.4268C110.75 42.1703 110.896 41.7971 110.989 41.3074C111.012 41.2374 111.03 41.1383 111.041 41.01C111.065 40.8818 111.071 40.736 111.059 40.5727C111.036 40.1413 110.954 39.7973 110.814 39.5407C110.686 39.2725 110.522 39.0743 110.324 38.946C110.126 38.8061 109.922 38.7128 109.712 38.6662C109.514 38.6079 109.339 38.5787 109.187 38.5787C108.966 38.567 108.762 38.567 108.575 38.5787C108.4 38.5787 108.266 38.5729 108.173 38.5612C108.161 38.5612 108.144 38.5029 108.12 38.3863C108.097 38.258 108.074 38.1356 108.05 38.019C108.027 37.9024 108.015 37.8441 108.015 37.8441ZM108.19 37.8441V48.339H105.654V37.8441H108.19ZM105.706 47.237L105.776 48.339H104.517V48.1641C104.529 48.1641 104.558 48.1641 104.605 48.1641C104.663 48.1641 104.704 48.1641 104.727 48.1641C104.983 48.1641 105.199 48.0766 105.374 47.9017C105.561 47.7151 105.66 47.4936 105.671 47.237H105.706ZM105.706 38.9285H105.671C105.66 38.6603 105.561 38.4446 105.374 38.2813C105.199 38.1064 104.989 38.019 104.744 38.019C104.709 38.019 104.663 38.019 104.605 38.019C104.558 38.019 104.529 38.019 104.517 38.019V37.8441H105.776L105.706 38.9285ZM108.155 47.237H108.19C108.19 47.5285 108.289 47.7559 108.488 47.9192C108.698 48.0824 108.919 48.1641 109.152 48.1641C109.152 48.1641 109.176 48.1641 109.222 48.1641C109.269 48.1641 109.304 48.1641 109.327 48.1641V48.339H108.068L108.155 47.237ZM127.864 37.3718L133.041 48.2515H130.085L126.832 40.5727L127.864 37.3718ZM124.576 47.1845C124.447 47.4994 124.465 47.7443 124.628 47.9192C124.791 48.0824 124.972 48.1641 125.17 48.1641H125.31V48.339H121.812V48.1641C121.812 48.1641 121.835 48.1641 121.882 48.1641C121.929 48.1641 121.952 48.1641 121.952 48.1641C122.185 48.1641 122.43 48.0941 122.687 47.9542C122.943 47.8026 123.153 47.546 123.316 47.1845H124.576ZM127.864 37.3718L127.899 39.4708L124.103 48.2865H122.809L126.902 39.4883C126.925 39.4183 126.978 39.2959 127.059 39.1209C127.141 38.9344 127.228 38.7303 127.322 38.5087C127.415 38.2755 127.503 38.0598 127.584 37.8615C127.666 37.6517 127.712 37.4884 127.724 37.3718H127.864ZM129.386 44.9106V45.5928H124.925V44.9106H129.386ZM129.648 47.1845H132.534C132.709 47.546 132.925 47.8026 133.181 47.9542C133.438 48.0941 133.683 48.1641 133.916 48.1641C133.916 48.1641 133.939 48.1641 133.986 48.1641C134.033 48.1641 134.056 48.1641 134.056 48.1641V48.339H128.913V48.1641H129.053C129.252 48.1641 129.432 48.0824 129.596 47.9192C129.759 47.7443 129.776 47.4994 129.648 47.1845ZM141.779 37.5992L152.047 46.6248L152.222 48.5664L141.972 39.5407L141.779 37.5992ZM141.849 47.272V48.339H140.555V48.1641C140.555 48.1641 140.602 48.1641 140.695 48.1641C140.788 48.1641 140.835 48.1641 140.835 48.1641C141.103 48.1641 141.331 48.0824 141.517 47.9192C141.704 47.7443 141.797 47.5285 141.797 47.272H141.849ZM144.193 47.272C144.205 47.5285 144.304 47.7443 144.491 47.9192C144.677 48.0824 144.899 48.1641 145.155 48.1641C145.155 48.1641 145.202 48.1641 145.295 48.1641C145.4 48.1641 145.453 48.1641 145.453 48.1641V48.339H144.158V47.272H144.193ZM141.779 37.5992L144.193 40.2229V48.339H141.797V39.5932C141.797 38.9985 141.768 38.5204 141.71 38.1589C141.651 37.7858 141.622 37.5992 141.622 37.5992H141.779ZM152.204 37.8441V46.5199C152.204 46.928 152.216 47.2895 152.239 47.6043C152.274 47.9075 152.304 48.1466 152.327 48.3215C152.362 48.4847 152.379 48.5664 152.379 48.5664H152.222L149.808 45.7852V37.8441H152.204ZM152.152 38.911V37.8441H153.464V38.019C153.464 38.019 153.411 38.019 153.306 38.019C153.213 38.019 153.166 38.019 153.166 38.019C152.91 38.019 152.683 38.1064 152.484 38.2813C152.298 38.4446 152.204 38.6545 152.204 38.911H152.152ZM149.808 38.911C149.796 38.6545 149.697 38.4446 149.511 38.2813C149.336 38.1064 149.114 38.019 148.846 38.019C148.846 38.019 148.794 38.019 148.689 38.019C148.595 38.019 148.549 38.019 148.549 38.019V37.8441H149.843V38.911H149.808ZM166.972 37.8965V48.339H164.436V37.8965H166.972ZM170.786 37.8266V38.5262H160.641V37.8266H170.786ZM170.786 38.4738V40.3279H170.593V40.1704C170.605 39.669 170.465 39.2725 170.173 38.981C169.894 38.6895 169.503 38.5379 169.001 38.5262V38.4738H170.786ZM170.786 37.5642V38.0015L168.932 37.8266C169.153 37.8266 169.392 37.8149 169.649 37.7916C169.905 37.7566 170.138 37.7216 170.348 37.6866C170.558 37.64 170.704 37.5992 170.786 37.5642ZM164.471 47.237V48.339H163.299V48.1641C163.299 48.1641 163.328 48.1641 163.387 48.1641C163.457 48.1641 163.492 48.1641 163.492 48.1641C163.748 48.1641 163.964 48.0766 164.139 47.9017C164.325 47.7151 164.425 47.4936 164.436 47.237H164.471ZM166.92 47.237H166.972C166.972 47.4936 167.066 47.7151 167.252 47.9017C167.439 48.0766 167.666 48.1641 167.934 48.1641C167.934 48.1641 167.964 48.1641 168.022 48.1641C168.092 48.1641 168.127 48.1641 168.127 48.1641V48.339H166.92V47.237ZM162.425 38.4738V38.5262C161.912 38.5379 161.515 38.6895 161.235 38.981C160.967 39.2725 160.833 39.669 160.833 40.1704V40.3279H160.641V38.4738H162.425ZM160.641 37.5642C160.745 37.5875 160.897 37.6225 161.095 37.6691C161.305 37.7158 161.533 37.7566 161.777 37.7916C162.034 37.8149 162.267 37.8266 162.477 37.8266L160.641 38.0015V37.5642Z" fill="#151515"/>
</svg>
